<?xml version="1.0" standalone="no"?>
<!DOCTYPE svg PUBLIC "-//W3C//DTD SVG 20010904//EN"
 "http://www.w3.org/TR/2001/REC-SVG-20010904/DTD/svg10.dtd">
<svg version="1.0" xmlns="http://www.w3.org/2000/svg"
 width="512.000000pt" height="512.000000pt" viewBox="0 0 512.000000 512.000000"
 preserveAspectRatio="xMidYMid meet">

<g transform="translate(0.000000,512.000000) scale(0.100000,-0.100000)"
fill="#000000" stroke="none">
<path d="M2213 4299 c-109 -10 -221 -42 -308 -87 -90 -47 -192 -147 -229 -224
-14 -32 -31 -58 -36 -58 -21 0 -93 -76 -118 -124 -49 -97 -41 -263 21 -406 10
-25 28 -76 38 -113 25 -89 66 -169 128 -249 l49 -65 -12 -84 c-10 -74 -14 -84
-32 -82 -15 1 -26 -14 -51 -68 -22 -49 -37 -69 -50 -69 -48 0 -227 -55 -308
-95 -237 -115 -360 -263 -636 -770 -50 -93 -112 -206 -136 -250 -110 -199
-175 -394 -176 -526 -1 -147 64 -227 214 -266 52 -13 68 -21 65 -33 -3 -8 -7
-34 -11 -57 l-7 -42 984 -3 983 -3 155 -36 155 -36 525 18 c289 10 534 18 546
19 18 0 24 13 44 106 23 102 24 106 57 119 37 16 49 36 35 60 -6 13 -2 24 20
45 15 16 28 39 28 52 0 13 9 29 20 36 14 8 20 23 20 50 0 20 7 46 15 56 20 27
19 62 -3 84 -15 15 -16 21 -4 42 16 31 8 80 -17 100 -18 15 -16 28 76 428 53
227 94 414 92 416 -2 2 -260 11 -574 19 l-570 16 -323 80 -323 79 -41 46 c-49
56 -155 120 -266 161 l-82 30 0 46 c0 38 -4 48 -20 52 -11 3 -20 13 -20 22 0
15 7 16 45 10 70 -10 221 -7 268 6 210 56 362 295 417 655 17 107 15 104 53
104 92 0 189 56 230 133 31 60 30 181 -2 254 -29 64 -97 130 -143 137 -18 3
-53 8 -78 11 -65 9 -117 35 -230 115 -116 83 -212 127 -296 135 -32 4 -68 8
-79 9 -11 2 -57 -1 -102 -5z m139 -366 c66 -31 104 -63 177 -152 115 -138 292
-187 431 -117 59 30 60 30 60 15 0 -5 -26 -22 -57 -37 -49 -23 -72 -27 -143
-27 -77 0 -92 3 -154 34 -67 33 -106 66 -218 190 -56 61 -132 99 -219 108 -32
3 -59 10 -59 16 0 19 119 0 182 -30z m-156 -73 c32 -16 93 -60 134 -96 205
-182 342 -254 478 -254 l45 0 -7 -64 c-9 -86 -51 -251 -86 -338 -62 -153 -152
-263 -256 -314 -51 -25 -71 -29 -176 -32 -131 -5 -213 9 -316 55 -150 66 -310
226 -377 377 -45 101 -68 270 -45 330 21 57 81 56 116 -3 22 -36 41 -46 62
-29 22 19 125 175 157 238 39 78 71 117 113 140 52 27 90 25 158 -10z m-546
-9 c0 -5 -7 -11 -15 -14 -8 -4 -23 -23 -33 -44 -19 -37 -23 -53 -37 -136 -3
-21 -10 -35 -15 -32 -18 11 13 148 46 198 22 33 54 50 54 28z m1037 -63 c42
-29 56 -33 114 -33 56 0 71 4 102 28 43 32 69 36 41 6 -61 -67 -173 -77 -260
-23 -26 16 -49 35 -52 42 -6 18 2 15 55 -20z m-881 -859 c34 -37 160 -116 233
-144 64 -25 82 -41 66 -57 -5 -4 -307 54 -341 66 -11 4 4 156 16 156 4 0 15
-9 26 -21z m797 -583 c323 -78 590 -146 593 -149 6 -6 -282 -1582 -294 -1608
-6 -13 -86 1 -619 115 -336 72 -614 134 -617 137 -6 6 29 193 40 210 3 5 18 9
33 9 16 0 39 8 52 19 20 16 22 22 12 44 -10 21 -9 28 8 43 22 20 25 44 7 63
-11 10 -10 15 5 25 19 15 23 51 6 62 -7 4 1 12 20 20 44 19 40 45 -15 92 l-46
39 61 304 c34 167 81 397 104 512 23 114 46 207 52 207 5 0 274 -65 598 -144z
m1252 -167 c259 -6 471 -12 472 -13 1 -1 -40 -183 -92 -404 -81 -352 -96 -407
-119 -431 -14 -15 -29 -42 -32 -60 l-7 -33 -453 3 c-250 3 -454 1 -454 -2 0
-11 194 -19 482 -19 272 0 286 -1 281 -18 -2 -10 3 -24 11 -31 9 -8 16 -18 16
-24 0 -7 -128 -8 -405 -4 -223 3 -405 2 -405 -2 0 -10 286 -21 556 -21 l212 0
4 -25 c4 -18 -1 -29 -18 -40 -20 -13 -79 -15 -399 -15 -243 0 -375 -4 -375
-10 0 -6 131 -10 373 -10 l374 0 11 -24 c10 -21 8 -25 -14 -30 -13 -4 -24 -11
-24 -16 0 -6 -135 -10 -370 -10 -240 0 -370 -4 -370 -10 0 -6 129 -10 366 -10
l366 0 26 -28 c15 -15 38 -35 52 -44 24 -16 2 -17 -396 -11 -276 4 -423 3
-427 -4 -9 -14 831 -27 848 -13 8 7 22 7 42 0 l30 -11 -23 -95 c-12 -52 -24
-98 -27 -100 -7 -8 -1031 -42 -1038 -35 -3 3 54 328 127 721 73 393 140 757
150 808 l17 94 81 -6 c44 -3 293 -11 551 -17z m-2230 -36 c-9 -26 -356 -676
-368 -691 -5 -7 -8 -15 -5 -17 4 -4 286 44 356 60 23 6 23 5 8 -17 -9 -12 -16
-37 -16 -54 0 -17 -7 -38 -16 -45 -11 -9 -14 -23 -10 -47 3 -18 0 -45 -6 -58
-9 -19 -9 -33 -1 -55 10 -25 9 -31 -8 -39 -31 -17 -23 -55 17 -88 l35 -29
-138 -61 c-375 -165 -588 -226 -783 -227 -109 0 -119 2 -182 32 -140 66 -167
195 -92 434 42 135 199 449 224 449 4 0 79 -64 166 -142 l157 -142 -54 -11
c-30 -7 -72 -17 -94 -24 -93 -30 -245 -134 -245 -168 0 -9 20 3 52 32 64 57
165 109 250 129 34 8 129 24 211 37 107 17 147 27 147 37 0 12 326 635 367
700 16 26 38 30 28 5z m143 -565 c32 -32 1 -102 -42 -96 -28 4 -35 62 -10 89
20 22 35 24 52 7z m-70 -102 c15 -8 39 -17 53 -20 35 -7 115 -79 105 -94 -11
-19 -63 -13 -151 16 -71 24 -80 30 -83 53 -3 26 19 59 40 59 5 0 22 -6 36 -14z
m17 -122 c77 -24 105 -43 105 -71 0 -19 -51 -16 -139 7 -86 22 -96 29 -87 64
8 32 20 32 121 0z m2469 -56 c7 -20 5 -33 -8 -52 -31 -48 -84 -24 -71 34 12
53 62 65 79 18z m-2387 -74 c17 -24 12 -36 -20 -52 -21 -10 -38 -10 -99 4 -40
9 -79 23 -85 32 -18 22 -16 59 4 70 23 13 182 -30 200 -54z m2308 -14 c3 -5
21 -10 39 -10 53 0 75 -43 40 -81 -15 -16 -19 -16 -87 2 -99 27 -126 39 -138
61 -8 15 -6 20 13 28 31 12 125 12 133 0z m-2414 -56 c85 -19 109 -35 89 -58
-16 -20 -117 -22 -163 -3 -39 17 -61 42 -53 62 7 19 36 19 127 -1z m2411 -55
c59 -17 68 -23 68 -43 0 -48 -22 -51 -120 -16 -103 37 -125 55 -95 77 22 16
43 13 147 -18z m-64 -76 c95 -32 111 -53 68 -90 l-27 -23 -62 24 c-34 13 -69
27 -78 31 -9 3 -22 18 -30 32 -12 22 -11 27 6 39 25 19 28 19 123 -13z m-40
-104 c44 -16 83 -38 87 -47 7 -20 -19 -42 -52 -42 -56 0 -163 66 -163 101 0
28 33 25 128 -12z"/>
<path d="M1630 3521 c0 -5 12 -16 26 -26 l26 -17 -21 -22 c-21 -23 -29 -76
-11 -76 6 0 10 10 10 23 0 28 17 47 42 47 28 0 21 16 -21 49 -41 32 -51 37
-51 22z"/>
<path d="M1998 3503 c-21 -8 -38 -19 -38 -24 0 -12 1 -12 43 6 20 8 61 15 92
15 31 0 72 -7 92 -15 42 -18 43 -18 43 -6 0 17 -81 41 -138 40 -31 0 -74 -7
-94 -16z"/>
<path d="M2553 3424 c-21 -9 -15 -23 7 -17 35 9 110 -18 147 -54 42 -39 60
-43 37 -8 -32 50 -149 97 -191 79z"/>
<path d="M2076 3367 c-12 -9 -19 -26 -19 -47 0 -63 82 -83 113 -27 13 24 13
30 0 55 -18 31 -64 41 -94 19z"/>
<path d="M2378 3224 l5 -86 -47 3 c-28 3 -45 0 -43 -6 2 -5 26 -10 53 -10 l49
0 3 50 c4 60 -6 135 -18 135 -4 0 -5 -39 -2 -86z"/>
<path d="M2557 3272 c-22 -24 -21 -65 1 -85 40 -36 102 -9 102 45 0 51 -69 78
-103 40z"/>
<path d="M1930 3222 c-58 -47 50 -119 121 -82 31 17 24 57 -13 80 -41 25 -79
25 -108 2z"/>
<path d="M2549 3089 c-18 -18 -19 -23 -6 -42 31 -47 110 -63 141 -28 24 27 13
55 -28 75 -46 22 -82 20 -107 -5z"/>
<path d="M2148 3086 c-29 -21 -41 -65 -27 -98 32 -78 143 -57 143 27 0 63 -70
106 -116 71z m76 -21 c25 -25 29 -54 12 -80 -35 -54 -116 -14 -100 49 10 43
58 60 88 31z"/>
<path d="M2050 2153 c0 -9 972 -223 979 -217 2 2 1 7 -3 11 -7 7 -929 212
-958 213 -10 0 -18 -3 -18 -7z"/>
<path d="M2005 2068 c-5 -18 -96 -430 -98 -448 -2 -11 53 -26 236 -65 131 -29
240 -48 243 -44 6 10 112 463 109 466 -4 5 -449 103 -467 103 -10 0 -20 -6
-23 -12z m250 -54 c116 -26 212 -48 214 -50 8 -7 -94 -426 -104 -430 -13 -5
-423 80 -432 90 -10 9 89 436 101 436 6 0 106 -21 221 -46z"/>
<path d="M2540 1911 c0 -13 -2 -12 243 -62 176 -35 237 -43 216 -26 -2 2 -98
23 -214 46 -115 23 -218 45 -227 47 -10 3 -18 1 -18 -5z"/>
<path d="M2520 1800 c0 -12 -6 -10 244 -60 179 -36 220 -41 204 -25 -2 3 -94
23 -204 45 -109 22 -209 42 -221 45 -13 3 -23 1 -23 -5z"/>
<path d="M2496 1691 c13 -12 443 -95 451 -87 3 3 4 8 2 9 -7 6 -422 87 -443
87 -12 0 -16 -3 -10 -9z"/>
<path d="M2470 1580 c0 -12 -6 -10 244 -60 179 -36 220 -41 204 -25 -2 3 -94
23 -204 45 -109 22 -209 42 -221 45 -13 3 -23 1 -23 -5z"/>
<path d="M1912 1528 c5 -14 947 -237 954 -227 6 10 6 10 -476 124 -523 124
-482 115 -478 103z"/>
<path d="M1890 1430 c0 -5 10 -12 23 -15 12 -3 225 -52 472 -110 248 -58 457
-105 465 -105 68 0 -106 44 -937 235 -13 3 -23 1 -23 -5z"/>
<path d="M1870 1330 c0 -5 10 -12 23 -15 566 -131 941 -215 945 -210 3 3 3 7
1 9 -2 3 -211 52 -464 110 -253 58 -470 108 -482 111 -13 3 -23 1 -23 -5z"/>
<path d="M1855 1229 c-3 -5 4 -11 17 -14 179 -44 934 -213 937 -209 2 2 2 7
-2 10 -3 4 -201 51 -439 105 -238 54 -450 103 -471 108 -21 5 -39 5 -42 0z"/>
<path d="M1836 1121 c13 -12 923 -223 943 -218 14 3 14 5 1 10 -26 11 -915
217 -935 217 -11 0 -15 -3 -9 -9z"/>
<path d="M1820 1020 c0 -5 2 -10 4 -10 3 0 213 -49 467 -110 255 -60 465 -108
467 -105 3 3 3 7 0 10 -5 5 -919 225 -933 225 -3 0 -5 -4 -5 -10z"/>
<path d="M3325 1978 c-10 -29 -106 -541 -102 -544 2 -3 191 -7 418 -11 l414
-6 69 272 c38 149 67 274 64 276 -5 6 -599 24 -771 25 -61 0 -89 -4 -92 -12z
m513 -18 c178 -5 326 -10 328 -12 3 -3 -61 -261 -117 -472 l-11 -39 -395 6
c-218 3 -397 7 -398 9 -2 2 20 119 47 261 l50 257 87 0 c47 -1 232 -5 409 -10z"/>
<path d="M3185 1332 c6 -6 180 -13 455 -17 298 -5 442 -4 435 3 -6 6 -180 13
-455 17 -298 5 -442 4 -435 -3z"/>
<path d="M3080 740 c0 -7 149 -10 426 -10 281 0 423 3 419 10 -4 6 -157 10
-426 10 -273 0 -419 -3 -419 -10z"/>
<path d="M3340 4030 c-19 -19 -20 -33 -20 -420 0 -482 -14 -440 146 -440 l106
0 -8 -52 c-12 -84 -11 -112 7 -116 8 -1 64 36 124 83 l108 85 462 0 c382 0
464 2 481 14 18 14 19 30 19 426 0 396 -1 412 -19 426 -17 12 -129 14 -703 14
-670 0 -683 0 -703 -20z m1400 -19 c6 -13 10 -157 10 -401 0 -244 -4 -388 -10
-401 -10 -18 -26 -19 -478 -19 l-467 0 -108 -86 c-60 -47 -111 -83 -114 -81
-4 5 5 60 23 145 4 22 4 22 -114 22 -78 0 -122 4 -130 12 -17 17 -17 799 0
816 9 9 177 12 695 12 664 0 683 -1 693 -19z"/>
<path d="M3951 3950 c-108 -22 -214 -113 -246 -211 -24 -72 -18 -188 14 -253
102 -209 386 -246 540 -70 56 64 75 117 75 214 1 78 -2 90 -33 148 -19 34 -50
77 -70 94 -73 65 -188 96 -280 78z m147 -45 c117 -35 202 -148 202 -269 0
-119 -57 -215 -156 -266 -67 -34 -198 -36 -259 -3 -130 69 -192 214 -149 349
14 46 31 72 74 116 83 83 175 106 288 73z"/>
<path d="M3922 3882 c-192 -69 -238 -317 -84 -452 86 -76 202 -89 303 -33 188
102 185 374 -4 469 -68 35 -146 40 -215 16z m78 -49 c1 -17 1 -17 11 0 13 23
29 22 29 -2 0 -14 10 -22 32 -27 58 -12 78 -32 78 -75 0 -28 -8 -47 -28 -70
l-28 -31 38 -38 c21 -21 38 -47 38 -59 0 -29 -42 -70 -79 -77 -18 -4 -31 -14
-35 -28 -6 -21 -7 -21 -21 -2 -13 17 -15 18 -15 3 0 -21 -19 -22 -26 -2 -4 10
-21 15 -53 15 -26 0 -56 6 -66 14 -25 18 -13 46 21 46 l26 0 -7 128 c-4 70 -9
130 -12 135 -2 4 -13 7 -24 7 -29 0 -20 32 11 41 14 4 40 7 58 8 21 1 32 6 32
16 0 8 5 15 10 15 6 0 10 -8 10 -17z"/>
<path d="M3980 3727 c0 -48 9 -67 31 -67 30 0 68 22 75 43 9 27 -16 48 -65 54
l-41 6 0 -36z"/>
<path d="M3994 3576 c-3 -8 -4 -29 -2 -48 4 -38 30 -48 79 -28 56 24 24 90
-44 90 -15 0 -30 -6 -33 -14z"/>
</g>
</svg>
